<svg width="26" height="28" viewBox="0 0 26 28" fill="none" xmlns="http://www.w3.org/2000/svg">
<g filter="url(#filter0_d)">
<path d="M14.4688 15.5448H15.4062C15.5306 15.5448 15.6498 15.4975 15.7377 15.4134C15.8256 15.3293 15.875 15.2153 15.875 15.0963V7.02503C15.875 6.90611 15.8256 6.79205 15.7377 6.70796C15.6498 6.62387 15.5306 6.57663 15.4062 6.57663H14.4688C14.3444 6.57663 14.2252 6.62387 14.1373 6.70796C14.0494 6.79205 14 6.90611 14 7.02503V15.0963C14 15.2153 14.0494 15.3293 14.1373 15.4134C14.2252 15.4975 14.3444 15.5448 14.4688 15.5448ZM20.875 2.98938H17.6559L16.3277 0.870656C16.1611 0.604981 15.9253 0.38514 15.6434 0.232557C15.3615 0.0799742 15.043 -0.000147354 14.7191 2.03444e-07H10.7809C10.4571 -1.82639e-05 10.1388 0.0801646 9.85707 0.232741C9.57531 0.385318 9.33965 0.605089 9.17305 0.870656L7.84414 2.98938H4.625C4.45924 2.98938 4.30027 3.05237 4.18306 3.16449C4.06585 3.27661 4 3.42868 4 3.58725V4.18513C4 4.34369 4.06585 4.49576 4.18306 4.60789C4.30027 4.72001 4.45924 4.783 4.625 4.783H5.25V17.3384C5.25 17.8141 5.44754 18.2703 5.79917 18.6067C6.15081 18.943 6.62772 19.132 7.125 19.132H18.375C18.8723 19.132 19.3492 18.943 19.7008 18.6067C20.0525 18.2703 20.25 17.8141 20.25 17.3384V4.783H20.875C21.0408 4.783 21.1997 4.72001 21.3169 4.60789C21.4342 4.49576 21.5 4.34369 21.5 4.18513V3.58725C21.5 3.42868 21.4342 3.27661 21.3169 3.16449C21.1997 3.05237 21.0408 2.98938 20.875 2.98938ZM10.7125 1.90236C10.7334 1.8691 10.7629 1.8416 10.7983 1.82254C10.8336 1.80348 10.8735 1.79352 10.9141 1.79363H14.5859C14.6264 1.79358 14.6662 1.80357 14.7015 1.82263C14.7368 1.84169 14.7663 1.86916 14.7871 1.90236L15.4691 2.98938H10.0309L10.7125 1.90236ZM18.375 17.3384H7.125V4.783H18.375V17.3384ZM10.0938 15.5448H11.0312C11.1556 15.5448 11.2748 15.4975 11.3627 15.4134C11.4506 15.3293 11.5 15.2153 11.5 15.0963V7.02503C11.5 6.90611 11.4506 6.79205 11.3627 6.70796C11.2748 6.62387 11.1556 6.57663 11.0312 6.57663H10.0938C9.96943 6.57663 9.8502 6.62387 9.76229 6.70796C9.67439 6.79205 9.625 6.90611 9.625 7.02503V15.0963C9.625 15.2153 9.67439 15.3293 9.76229 15.4134C9.8502 15.4975 9.96943 15.5448 10.0938 15.5448Z" fill="#556724"/>
</g>
<defs>
<filter id="filter0_d" x="0" y="0" width="25.5" height="27.132" filterUnits="userSpaceOnUse" color-interpolation-filters="sRGB">
<feFlood flood-opacity="0" result="BackgroundImageFix"/>
<feColorMatrix in="SourceAlpha" type="matrix" values="0 0 0 0 0 0 0 0 0 0 0 0 0 0 0 0 0 0 127 0"/>
<feOffset dy="4"/>
<feGaussianBlur stdDeviation="2"/>
<feColorMatrix type="matrix" values="0 0 0 0 0 0 0 0 0 0 0 0 0 0 0 0 0 0 0.25 0"/>
<feBlend mode="normal" in2="BackgroundImageFix" result="effect1_dropShadow"/>
<feBlend mode="normal" in="SourceGraphic" in2="effect1_dropShadow" result="shape"/>
</filter>
</defs>
</svg>
