<svg width="18" height="20" viewBox="0 0 18 20" fill="none" xmlns="http://www.w3.org/2000/svg">
<path d="M10.4688 15.5448H11.4062C11.5306 15.5448 11.6498 15.4975 11.7377 15.4134C11.8256 15.3293 11.875 15.2153 11.875 15.0963V7.02503C11.875 6.90611 11.8256 6.79205 11.7377 6.70796C11.6498 6.62387 11.5306 6.57663 11.4062 6.57663H10.4688C10.3444 6.57663 10.2252 6.62387 10.1373 6.70796C10.0494 6.79205 10 6.90611 10 7.02503V15.0963C10 15.2153 10.0494 15.3293 10.1373 15.4134C10.2252 15.4975 10.3444 15.5448 10.4688 15.5448ZM16.875 2.98938H13.6559L12.3277 0.870656C12.1611 0.604981 11.9253 0.38514 11.6434 0.232557C11.3615 0.0799742 11.043 -0.000147354 10.7191 2.03444e-07H6.78086C6.45709 -1.82639e-05 6.13883 0.0801646 5.85707 0.232741C5.57531 0.385318 5.33965 0.605089 5.17305 0.870656L3.84414 2.98938H0.625C0.45924 2.98938 0.300269 3.05237 0.183058 3.16449C0.065848 3.27661 0 3.42868 0 3.58725L0 4.18513C0 4.34369 0.065848 4.49576 0.183058 4.60789C0.300269 4.72001 0.45924 4.783 0.625 4.783H1.25V17.3384C1.25 17.8141 1.44754 18.2703 1.79917 18.6067C2.15081 18.943 2.62772 19.132 3.125 19.132H14.375C14.8723 19.132 15.3492 18.943 15.7008 18.6067C16.0525 18.2703 16.25 17.8141 16.25 17.3384V4.783H16.875C17.0408 4.783 17.1997 4.72001 17.3169 4.60789C17.4342 4.49576 17.5 4.34369 17.5 4.18513V3.58725C17.5 3.42868 17.4342 3.27661 17.3169 3.16449C17.1997 3.05237 17.0408 2.98938 16.875 2.98938ZM6.7125 1.90236C6.73339 1.8691 6.76294 1.8416 6.79827 1.82254C6.8336 1.80348 6.8735 1.79352 6.91406 1.79363H10.5859C10.6264 1.79358 10.6662 1.80357 10.7015 1.82263C10.7368 1.84169 10.7663 1.86916 10.7871 1.90236L11.4691 2.98938H6.03086L6.7125 1.90236ZM14.375 17.3384H3.125V4.783H14.375V17.3384ZM6.09375 15.5448H7.03125C7.15557 15.5448 7.2748 15.4975 7.36271 15.4134C7.45061 15.3293 7.5 15.2153 7.5 15.0963V7.02503C7.5 6.90611 7.45061 6.79205 7.36271 6.70796C7.2748 6.62387 7.15557 6.57663 7.03125 6.57663H6.09375C5.96943 6.57663 5.8502 6.62387 5.76229 6.70796C5.67439 6.79205 5.625 6.90611 5.625 7.02503V15.0963C5.625 15.2153 5.67439 15.3293 5.76229 15.4134C5.8502 15.4975 5.96943 15.5448 6.09375 15.5448Z" fill="#556724"/>
</svg>
