<svg width="30" height="30" viewBox="0 0 30 30" fill="none" xmlns="http://www.w3.org/2000/svg">
<path fill-rule="evenodd" clip-rule="evenodd" d="M9.33125 1.33255C10.7975 1.26505 11.265 1.25005 15 1.25005C18.735 1.25005 19.2025 1.2663 20.6675 1.33255C22.1325 1.3988 23.1325 1.63255 24.0075 1.9713C24.9237 2.31755 25.755 2.8588 26.4425 3.5588C27.1425 4.24505 27.6825 5.07505 28.0275 5.99255C28.3675 6.86755 28.6 7.86755 28.6675 9.33005C28.735 10.7988 28.75 11.2663 28.75 15C28.75 18.735 28.7338 19.2025 28.6675 20.6688C28.6013 22.1313 28.3675 23.1313 28.0275 24.0063C27.6825 24.9239 27.1416 25.7553 26.4425 26.4425C25.755 27.1425 24.9237 27.6825 24.0075 28.0275C23.1325 28.3675 22.1325 28.6 20.67 28.6675C19.2025 28.735 18.735 28.75 15 28.75C11.265 28.75 10.7975 28.7338 9.33125 28.6675C7.86875 28.6013 6.86875 28.3675 5.99375 28.0275C5.07615 27.6825 4.24478 27.1416 3.5575 26.4425C2.85797 25.7559 2.31664 24.9249 1.97125 24.0075C1.6325 23.1325 1.4 22.1325 1.3325 20.67C1.265 19.2013 1.25 18.7338 1.25 15C1.25 11.265 1.26625 10.7975 1.3325 9.33255C1.39875 7.86755 1.6325 6.86755 1.97125 5.99255C2.31715 5.07515 2.8589 4.24419 3.55875 3.55755C4.24505 2.85817 5.07559 2.31685 5.9925 1.9713C6.8675 1.63255 7.8675 1.40005 9.33 1.33255H9.33125ZM20.5562 3.80755C19.1062 3.7413 18.6713 3.72755 15 3.72755C11.3287 3.72755 10.8937 3.7413 9.44375 3.80755C8.1025 3.8688 7.375 4.09255 6.89 4.2813C6.24875 4.5313 5.79 4.82755 5.30875 5.3088C4.85256 5.75261 4.50148 6.2929 4.28125 6.89005C4.0925 7.37505 3.86875 8.10255 3.8075 9.4438C3.74125 10.8938 3.7275 11.3288 3.7275 15C3.7275 18.6713 3.74125 19.1063 3.8075 20.5563C3.86875 21.8975 4.0925 22.625 4.28125 23.11C4.50125 23.7063 4.8525 24.2475 5.30875 24.6913C5.7525 25.1475 6.29375 25.4988 6.89 25.7188C7.375 25.9075 8.1025 26.1313 9.44375 26.1925C10.8937 26.2588 11.3275 26.2725 15 26.2725C18.6725 26.2725 19.1062 26.2588 20.5562 26.1925C21.8975 26.1313 22.625 25.9075 23.11 25.7188C23.7513 25.4688 24.21 25.1725 24.6913 24.6913C25.1475 24.2475 25.4988 23.7063 25.7188 23.11C25.9075 22.625 26.1313 21.8975 26.1925 20.5563C26.2588 19.1063 26.2725 18.6713 26.2725 15C26.2725 11.3288 26.2588 10.8938 26.1925 9.4438C26.1313 8.10255 25.9075 7.37505 25.7188 6.89005C25.4688 6.2488 25.1725 5.79005 24.6913 5.3088C24.2474 4.85263 23.7071 4.50156 23.11 4.2813C22.625 4.09255 21.8975 3.8688 20.5562 3.80755V3.80755ZM13.2438 19.2388C14.2246 19.6471 15.3167 19.7022 16.3337 19.3947C17.3506 19.0872 18.2292 18.4362 18.8195 17.5528C19.4098 16.6695 19.6751 15.6086 19.5701 14.5514C19.465 13.4942 18.9963 12.5063 18.2438 11.7563C17.764 11.2769 17.184 10.9098 16.5454 10.6815C15.9068 10.4531 15.2255 10.3692 14.5506 10.4358C13.8757 10.5024 13.2239 10.7178 12.6423 11.0665C12.0606 11.4152 11.5634 11.8885 11.1866 12.4524C10.8098 13.0162 10.5627 13.6567 10.4631 14.3275C10.3636 14.9983 10.4139 15.6829 10.6107 16.3319C10.8074 16.981 11.1456 17.5783 11.6009 18.0809C12.0562 18.5836 12.6173 18.979 13.2438 19.2388ZM10.0025 10.0025C10.6588 9.34626 11.4379 8.82567 12.2954 8.4705C13.1528 8.11532 14.0719 7.93251 15 7.93251C15.9281 7.93251 16.8472 8.11532 17.7046 8.4705C18.5621 8.82567 19.3412 9.34626 19.9975 10.0025C20.6538 10.6588 21.1744 11.4379 21.5295 12.2954C21.8847 13.1529 22.0675 14.0719 22.0675 15C22.0675 15.9282 21.8847 16.8472 21.5295 17.7047C21.1744 18.5621 20.6538 19.3413 19.9975 19.9975C18.6721 21.323 16.8744 22.0676 15 22.0676C13.1256 22.0676 11.3279 21.323 10.0025 19.9975C8.67708 18.6721 7.93247 16.8745 7.93247 15C7.93247 13.1256 8.67708 11.328 10.0025 10.0025V10.0025ZM23.635 8.98505C23.7976 8.83163 23.9278 8.64715 24.0179 8.44251C24.1079 8.23788 24.156 8.01726 24.1593 7.79371C24.1625 7.57016 24.1209 7.34823 24.0369 7.14106C23.9528 6.93389 23.828 6.74568 23.67 6.58759C23.5119 6.42951 23.3237 6.30474 23.1165 6.22069C22.9093 6.13664 22.6874 6.09502 22.4638 6.09827C22.2403 6.10153 22.0197 6.14961 21.815 6.23967C21.6104 6.32972 21.4259 6.45991 21.2725 6.62255C20.9741 6.93883 20.8108 7.35895 20.8171 7.79371C20.8235 8.22847 20.999 8.64364 21.3064 8.9511C21.6139 9.25855 22.0291 9.43408 22.4638 9.44042C22.8986 9.44676 23.3187 9.28341 23.635 8.98505V8.98505Z" fill="white"/>
</svg>
