<svg width="32" height="33" viewBox="0 0 32 33" fill="none" xmlns="http://www.w3.org/2000/svg">
<path fill-rule="evenodd" clip-rule="evenodd" d="M27.3375 4.7963C25.8615 3.27142 24.1053 2.06231 22.1708 1.23901C20.2362 0.415706 18.1617 -0.00541055 16.0674 5.24785e-05C7.28562 5.24785e-05 0.136661 7.3356 0.133111 16.3525C0.133111 19.2342 0.86611 22.0468 2.25934 24.5278L0 33L8.44635 30.7248C10.7827 32.0302 13.4002 32.7146 16.0603 32.7158H16.0674C24.8474 32.7158 31.9964 25.3803 31.9999 16.3634C32.006 14.2148 31.597 12.0863 30.7967 10.1009C29.9965 8.11547 28.8207 6.31254 27.3375 4.7963ZM16.0674 29.9561H16.0621C13.6901 29.9564 11.3617 29.3014 9.32133 28.0598L8.83858 27.7647L3.8265 29.1145L5.16294 24.0997L4.8488 23.586C3.52263 21.4191 2.8206 18.9114 2.82373 16.3525C2.82728 8.85845 8.76759 2.76158 16.0727 2.76158C17.8125 2.75762 19.5358 3.10784 21.1428 3.79197C22.7498 4.4761 24.2086 5.48057 25.4349 6.74723C26.6677 8.00784 27.6449 9.50675 28.3099 11.1573C28.9749 12.8078 29.3146 14.5773 29.3093 16.3634C29.3058 23.8574 23.3655 29.9561 16.0674 29.9561ZM23.3317 19.7752C22.9324 19.5694 20.9766 18.5821 20.6109 18.4455C20.2471 18.3089 19.9827 18.2415 19.7164 18.6495C19.4502 19.0575 18.687 19.9774 18.4545 20.2507C18.222 20.5239 17.9895 20.5567 17.592 20.3527C17.1944 20.1487 15.9112 19.717 14.3902 18.3253C13.2064 17.2414 12.4077 15.9044 12.1752 15.4945C11.9427 15.0846 12.1504 14.8642 12.3509 14.6602C12.5302 14.4781 12.7485 14.183 12.9473 13.9443C13.1461 13.7057 13.2117 13.5363 13.3448 13.2631C13.478 12.9898 13.4123 12.7512 13.3111 12.5472C13.2117 12.3413 12.4148 10.3303 12.0829 9.5124C11.7617 8.72001 11.4334 8.82566 11.1884 8.81473C10.9348 8.80408 10.6809 8.79922 10.427 8.80016C10.2252 8.80544 10.0265 8.85347 9.84359 8.94124C9.66065 9.02901 9.49735 9.15462 9.36393 9.31021C8.99832 9.72006 7.9707 10.7074 7.9707 12.7184C7.9707 14.7294 9.39765 16.6731 9.59643 16.9463C9.79521 17.2196 12.4042 21.3455 16.3975 23.116C17.3488 23.5368 18.0907 23.7882 18.6675 23.9777C19.6206 24.2892 20.4885 24.2436 21.1753 24.1398C21.9403 24.0232 23.5305 23.1525 23.8624 22.198C24.1943 21.2435 24.1943 20.4256 24.0949 20.2543C23.9955 20.0831 23.7275 19.9793 23.3317 19.7752Z" fill="white"/>
</svg>
