<svg width="30" height="30" viewBox="0 0 30 30" fill="none" xmlns="http://www.w3.org/2000/svg">
<g clip-path="url(#clip0)">
<path d="M25.5019 4.3613C24.1265 2.97319 22.4886 1.87269 20.6837 1.12393C18.8787 0.37517 16.9428 -0.00687879 14.9887 4.67184e-05C6.80062 4.67184e-05 0.1275 6.6713 0.12 14.8613C0.12 17.4844 0.80625 20.0363 2.10188 22.2957L0 30L7.8825 27.9338C10.0631 29.1205 12.5061 29.7425 14.9887 29.7432H14.9963C23.1863 29.7432 29.8575 23.0719 29.865 14.8744C29.8669 12.9208 29.4822 10.986 28.733 9.18169C27.9839 7.37737 26.8851 5.73911 25.5 4.3613H25.5019ZM14.9887 27.2269C12.7744 27.2277 10.6007 26.6318 8.69625 25.5019L8.24625 25.2319L3.57 26.4582L4.81875 21.8963L4.52625 21.4257C3.28839 19.4575 2.63371 17.1788 2.63812 14.8538C2.63812 8.05505 8.1825 2.5088 14.9963 2.5088C16.6195 2.50588 18.2273 2.82431 19.7269 3.44572C21.2265 4.06713 22.5883 4.97922 23.7337 6.12942C24.8832 7.27514 25.7944 8.63709 26.4149 10.1367C27.0353 11.6364 27.3527 13.244 27.3488 14.8669C27.3413 21.69 21.7969 27.2269 14.9887 27.2269V27.2269ZM21.7669 17.9757C21.3975 17.79 19.5731 16.8919 19.23 16.7644C18.8887 16.6425 18.6394 16.5788 18.3956 16.95C18.1462 17.3194 17.4338 18.1613 17.22 18.4032C17.0063 18.6525 16.785 18.6807 16.4137 18.4969C16.0444 18.3094 14.8463 17.9194 13.4288 16.65C12.3225 15.6657 11.5819 14.4469 11.3606 14.0775C11.1469 13.7063 11.34 13.5075 11.5256 13.3219C11.6887 13.1569 11.895 12.8869 12.0806 12.6732C12.2681 12.4594 12.33 12.3019 12.4519 12.0544C12.5737 11.8032 12.5156 11.5894 12.4237 11.4038C12.33 11.2182 11.5894 9.3863 11.2762 8.64755C10.9762 7.91817 10.6706 8.01942 10.4419 8.01005C10.2281 7.99692 9.97875 7.99692 9.72938 7.99692C9.54106 8.0016 9.35574 8.04516 9.18505 8.12486C9.01436 8.20455 8.86199 8.31867 8.7375 8.46005C8.39625 8.8313 7.44188 9.72942 7.44188 11.5613C7.44188 13.3932 8.77312 15.1538 8.96062 15.4032C9.14437 15.6525 11.5744 19.4007 15.3037 21.0132C16.185 21.3975 16.8788 21.6244 17.4206 21.7969C18.3113 22.0819 19.1156 22.0388 19.7569 21.9469C20.4694 21.8382 21.9525 21.0469 22.2656 20.1788C22.5731 19.3088 22.5731 18.5663 22.4794 18.4107C22.3875 18.2532 22.1381 18.1613 21.7669 17.9757V17.9757Z" fill="white"/>
</g>
<defs>
<clipPath id="clip0">
<rect width="29.865" height="30.0001" fill="white"/>
</clipPath>
</defs>
</svg>
